<svg width="41" height="40" viewBox="0 0 41 40" fill="none" xmlns="http://www.w3.org/2000/svg">
<rect x="0.5" width="40" height="40" rx="20" fill="#4CE946" fill-opacity="0.3"/>
<path opacity="0.4" d="M21.75 12.5C21.75 11.2574 22.7574 10.25 24 10.25C25.2426 10.25 26.25 11.2574 26.25 12.5C26.25 13.7426 25.2426 14.75 24 14.75C22.7574 14.75 21.75 13.7426 21.75 12.5Z" fill="#248F21"/>
<path d="M25.7756 18.9191C25.0463 18.9973 24.3869 18.8611 23.8183 18.6154L21.2866 22.4653L22.2224 23.3868C22.9923 24.1451 23.5401 25.0967 23.8051 26.1407L24.4693 28.7567C24.6052 29.292 24.2814 29.8361 23.7461 29.972C23.2108 30.1079 22.6666 29.7841 22.5307 29.2488L21.8666 26.6329C21.6921 25.9454 21.3307 25.3157 20.8191 24.8119L19.3378 23.3531C18.8676 22.9828 18.46 22.6614 18.15 22.3643C17.8181 22.0463 17.5257 21.6905 17.3546 21.2256C17.2242 20.8711 17.1619 20.4952 17.171 20.1176C17.1829 19.6224 17.3449 19.1912 17.5564 18.7831C17.7551 18.3999 18.2077 17.7015 18.5355 17.1958C17.9367 17.3217 17.4604 17.5035 17.0716 17.725C16.3438 18.1395 15.8293 18.746 15.3917 19.608C15.1417 20.1005 14.5398 20.297 14.0473 20.047C13.5549 19.797 13.3583 19.1951 13.6083 18.7027C14.1707 17.595 14.9251 16.6459 16.0817 15.9871C17.2217 15.3377 18.657 15.025 20.4882 15.0034C20.7134 15.0007 21.0739 14.9999 21.3995 15C21.6263 15 21.8497 15 22.0404 15.0148C22.2518 15.0313 22.4985 15.0699 22.7515 15.1881C23.0268 15.3167 23.2336 15.5143 23.3838 15.6723C23.5341 15.8304 23.7061 16.036 23.8964 16.2634C23.9969 16.3834 24.079 16.4637 24.0999 16.4793C24.5319 16.8033 25.026 16.988 25.5625 16.9305C26.0972 16.8732 26.8463 16.5568 27.7525 15.5369C28.1193 15.124 28.7514 15.0867 29.1642 15.4535C29.5771 15.8204 29.6144 16.4524 29.2475 16.8653C28.1164 18.1383 26.9428 18.794 25.7756 18.9191Z" fill="#248F21"/>
<path opacity="0.4" fill-rule="evenodd" clip-rule="evenodd" d="M17.9651 23.1147C18.454 23.3716 18.6421 23.9762 18.3852 24.4651C17.3649 26.407 15.0962 27.3758 12.9468 26.8644L12.2685 26.7031C11.7313 26.5753 11.3993 26.0361 11.5271 25.4988C11.655 24.9615 12.1942 24.6296 12.7314 24.7574L13.4097 24.9188C14.717 25.2298 16.0415 24.6259 16.6147 23.5349C16.8716 23.046 17.4762 22.8579 17.9651 23.1147Z" fill="#248F21"/>
</svg>
