<svg width="776" height="910" viewBox="0 0 776 910" fill="none" xmlns="http://www.w3.org/2000/svg">
<circle cx="629" cy="191.174" r="147" fill="#2BFF00"/>
<circle cx="147" cy="643.174" r="147" fill="#38618C"/>
<path d="M492 79.1739C512.285 55.9901 557 29.1738 557 29.1738C557 29.1738 379.999 -49.8261 206.999 52.1738C156.001 82.2425 53.9995 168.174 108.999 358.174C108.999 358.174 142.999 438.174 217.999 477.174C300.606 520.129 447.999 540.174 447.999 540.174C447.999 540.174 512.666 551.174 535.999 579.174C565.999 615.174 561.999 651.174 561.999 651.174C561.999 651.174 558.826 694.174 530.999 726.174C503.173 758.174 454.457 763.938 399.999 769.174C347.999 774.174 290.999 747.174 290.999 747.174C290.999 747.174 262.899 778.241 238.999 794.174C202.999 818.174 150.999 820.174 150.999 820.174C150.999 820.174 179.146 853.011 211.999 868.174C263.999 892.174 300.999 904.174 368.999 908.174C439.194 912.303 503.999 906.174 575.999 869.174C636 838.341 703 763.174 711 686.174C718.039 618.421 723 598.174 685 516.174C665.888 474.934 627 452.174 581.999 427.174C536.999 402.174 353.999 377.674 300.999 351.174C271.999 336.674 252.999 299.174 252.999 299.174C252.999 299.174 220.999 221.424 291.999 168.174C363.999 114.174 459.999 144.174 459.999 144.174C459.999 144.174 471 103.174 492 79.1739Z" fill="white"/>
</svg>
