<svg width="776" height="910" viewBox="0 0 776 910" fill="none" xmlns="http://www.w3.org/2000/svg">
<circle cx="629" cy="191.752" r="147" fill="#2BFF00"/>
<circle cx="147" cy="643.752" r="147" fill="black"/>
<path d="M492 79.7525C512.285 56.5688 557 29.7525 557 29.7525C557 29.7525 379.999 -49.2474 206.999 52.7525C156.001 82.8211 53.9995 168.753 108.999 358.753C108.999 358.753 142.999 438.753 217.999 477.753C300.606 520.708 447.999 540.753 447.999 540.753C447.999 540.753 512.666 551.753 535.999 579.753C565.999 615.753 561.999 651.753 561.999 651.753C561.999 651.753 558.826 694.753 530.999 726.753C503.173 758.753 454.457 764.516 399.999 769.753C347.999 774.753 290.999 747.753 290.999 747.753C290.999 747.753 262.899 778.819 238.999 794.753C202.999 818.753 150.999 820.753 150.999 820.753C150.999 820.753 179.146 853.589 211.999 868.753C263.999 892.753 300.999 904.753 368.999 908.753C439.194 912.882 503.999 906.753 575.999 869.753C636 838.919 703 763.753 711 686.753C718.039 619 723 598.753 685 516.753C665.888 475.512 627 452.752 581.999 427.753C536.999 402.753 353.999 378.253 300.999 351.753C271.999 337.253 252.999 299.753 252.999 299.753C252.999 299.753 220.999 222.003 291.999 168.753C363.999 114.753 459.999 144.753 459.999 144.753C459.999 144.753 471 103.753 492 79.7525Z" fill="white"/>
</svg>
