<svg width="776" height="910" viewBox="0 0 776 910" fill="none" xmlns="http://www.w3.org/2000/svg">
<circle cx="629" cy="191.463" r="147" fill="#2BFF00"/>
<circle cx="147" cy="643.463" r="147" fill="#38618C"/>
<path d="M492 79.4632C512.285 56.2795 557 29.4632 557 29.4632C557 29.4632 379.999 -49.5368 206.999 52.4632C156.001 82.5318 53.9995 168.463 108.999 358.463C108.999 358.463 142.999 438.463 217.999 477.463C300.606 520.419 447.999 540.463 447.999 540.463C447.999 540.463 512.666 551.463 535.999 579.463C565.999 615.463 561.999 651.463 561.999 651.463C561.999 651.463 558.826 694.463 530.999 726.463C503.173 758.463 454.457 764.227 399.999 769.463C347.999 774.463 290.999 747.463 290.999 747.463C290.999 747.463 262.899 778.53 238.999 794.463C202.999 818.463 150.999 820.463 150.999 820.463C150.999 820.463 179.146 853.3 211.999 868.463C263.999 892.463 300.999 904.463 368.999 908.463C439.194 912.592 503.999 906.463 575.999 869.463C636 838.63 703 763.463 711 686.463C718.039 618.71 723 598.463 685 516.463C665.888 475.223 627 452.463 581.999 427.463C536.999 402.463 353.999 377.963 300.999 351.463C271.999 336.963 252.999 299.463 252.999 299.463C252.999 299.463 220.999 221.713 291.999 168.463C363.999 114.463 459.999 144.463 459.999 144.463C459.999 144.463 471 103.463 492 79.4632Z" fill="black"/>
</svg>
