<svg width="776" height="911" viewBox="0 0 776 911" fill="none" xmlns="http://www.w3.org/2000/svg">
<circle cx="629" cy="192.042" r="147" fill="#38618C"/>
<circle cx="147" cy="644.042" r="147" fill="black"/>
<path d="M492 80.0421C512.285 56.8583 557 30.042 557 30.042C557 30.042 379.999 -48.9579 206.999 53.0421C156.001 83.1107 53.9995 169.042 108.999 359.042C108.999 359.042 142.999 439.042 217.999 478.042C300.606 520.997 447.999 541.042 447.999 541.042C447.999 541.042 512.666 552.042 535.999 580.042C565.999 616.042 561.999 652.042 561.999 652.042C561.999 652.042 558.826 695.042 530.999 727.042C503.173 759.042 454.457 764.806 399.999 770.042C347.999 775.042 290.999 748.042 290.999 748.042C290.999 748.042 262.899 779.109 238.999 795.042C202.999 819.042 150.999 821.042 150.999 821.042C150.999 821.042 179.146 853.879 211.999 869.042C263.999 893.042 300.999 905.042 368.999 909.042C439.194 913.171 503.999 907.042 575.999 870.042C636 839.209 703 764.042 711 687.042C718.039 619.289 723 599.042 685 517.042C665.888 475.802 627 453.042 581.999 428.042C536.999 403.042 353.999 378.542 300.999 352.042C271.999 337.542 252.999 300.042 252.999 300.042C252.999 300.042 220.999 222.292 291.999 169.042C363.999 115.042 459.999 145.042 459.999 145.042C459.999 145.042 471 104.042 492 80.0421Z" fill="#1A9B00"/>
</svg>
